# xmcd CD database file
#
# Track frame offsets:
#	183
#	12925
#	26550
#	40298
#	53025
#	64505
#	75460
#	86910
#	99845
#	112385
#	125730
#	139290
#	152558
#	165700
#	179933
#	208093
#	219363
#	240965
#	265795
#	281940
#
# Disc length: 4357 seconds
#
# Revision: 2
# Processed by: cddbd v1.4PL0 Copyright (c) Steve Scherf et al.
# Submitted via: CDex 1.40Release
#
DISCID=22110314
DTITLE=B.B. King - King of the Blues Guitar
DYEAR=1900
DGENRE=
TTITLE0=Everyday I Have the Blues
TTITLE1=Sweet Little Angel
TTITLE2=You Upset Me Baby
TTITLE3=Please Love Me
TTITLE4=Early Every Morning
TTITLE5=You Don't Know
TTITLE6=Did You Ever Love A Woman
TTITLE7=Bad Luck
TTITLE8=Ten Long Years
TTITLE9=Crying Won't Help You
TTITLE10=3 O'Clock Blues
TTITLE11=Blind Love
TTITLE12=Woke Up This Morning
TTITLE13=Rock Me Baby
TTITLE14=Sweet Sixteen
TTITLE15=Waitin' On You
TTITLE16=Gambler's Blues
TTITLE17=The Thrill Is Gone
TTITLE18=Tired Of Your Jive
TTITLE19=Worry, Worry, Worry
EXTD=
EXTT0=
EXTT1=
EXTT2=
EXTT3=
EXTT4=
EXTT5=
EXTT6=
EXTT7=
EXTT8=
EXTT9=
EXTT10=
EXTT11=
EXTT12=
EXTT13=
EXTT14=
EXTT15=
EXTT16=
EXTT17=
EXTT18=
EXTT19=
PLAYORDER=
